<?xml version="1.0" encoding="UTF-8" standalone="no"?>
<!-- Created with Inkscape (http://www.inkscape.org/) -->

<svg
   height="2000"
   width="1000"
   sodipodi:docname="U+E52D dynamicMF.svg"
   version="1.1"
   id="svg1"
   inkscape:version="1.3.2 (091e20e, 2023-11-25)"
   xml:space="preserve"
   xmlns:inkscape="http://www.inkscape.org/namespaces/inkscape"
   xmlns:sodipodi="http://sodipodi.sourceforge.net/DTD/sodipodi-0.dtd"
   xmlns="http://www.w3.org/2000/svg"
   xmlns:svg="http://www.w3.org/2000/svg"
   xmlns:rdf="http://www.w3.org/1999/02/22-rdf-syntax-ns#"
   xmlns:cc="http://creativecommons.org/ns#"
   xmlns:dc="http://purl.org/dc/elements/1.1/"><sodipodi:namedview
     id="base"
     pagecolor="#ffffff"
     bordercolor="#000000"
     borderopacity="0.3"
     inkscape:pageopacity="0.0"
     inkscape:pageshadow="2"
     inkscape:zoom="0.31892573"
     inkscape:cx="253.97763"
     inkscape:cy="1508.1881"
     inkscape:document-units="px"
     inkscape:current-layer="layer1"
     showgrid="false"
     showguides="true"
     inkscape:window-width="1712"
     inkscape:window-height="965"
     inkscape:window-x="0"
     inkscape:window-y="43"
     inkscape:window-maximized="0"
     showborder="true"
     inkscape:showpageshadow="false"
     inkscape:pagecheckerboard="0"
     inkscape:deskcolor="#d1d1d1"><sodipodi:guide
       position="0,250"
       orientation="0,1"
       id="guide1"
       inkscape:locked="false"
       inkscape:label="0sp"
       inkscape:color="rgb(0,134,229)" /><sodipodi:guide
       position="0,500"
       orientation="0,1"
       id="guide2"
       inkscape:locked="false"
       inkscape:label="1sp"
       inkscape:color="rgb(0,134,229)" /><sodipodi:guide
       position="0,750"
       orientation="0,1"
       id="guide3"
       inkscape:locked="false"
       inkscape:label=""
       inkscape:color="rgb(0,134,229)" /><sodipodi:guide
       position="0,2000"
       orientation="0,1"
       id="guide4"
       inkscape:locked="false"
       inkscape:label="5sp"
       inkscape:color="rgb(0,134,229)" /><sodipodi:guide
       position="0,2250"
       orientation="0,1"
       id="guide5"
       inkscape:locked="false"
       inkscape:label="6 sp"
       inkscape:color="rgb(0,134,229)" /><sodipodi:guide
       position="0,1000"
       orientation="0,1"
       id="guide6"
       inkscape:locked="false"
       inkscape:label=""
       inkscape:color="rgb(0,134,229)" /><sodipodi:guide
       position="485.78727,749.96795"
       orientation="0,1"
       id="guide7"
       inkscape:locked="false"
       inkscape:label=""
       inkscape:color="rgb(0,134,229)" /><sodipodi:guide
       position="136.75767,499.12785"
       orientation="0,1"
       id="guide8"
       inkscape:locked="false"
       inkscape:label=""
       inkscape:color="rgb(0,134,229)" /></sodipodi:namedview><defs
     id="defs4" /><metadata
     id="metadata7"><rdf:RDF><cc:Work
         rdf:about=""><dc:format>image/svg+xml</dc:format><dc:type
           rdf:resource="http://purl.org/dc/dcmitype/StillImage" /><cc:license
           rdf:resource="http://scripts.sil.org/OFL" /></cc:Work><cc:License
         rdf:about="http://scripts.sil.org/OFL"><cc:permits
           rdf:resource="http://scripts.sil.org/pub/OFL/Reproduction" /><cc:permits
           rdf:resource="http://scripts.sil.org/pub/OFL/Distribution" /><cc:permits
           rdf:resource="http://scripts.sil.org/pub/OFL/Embedding" /><cc:permits
           rdf:resource="http://scripts.sil.org/pub/OFL/DerivativeWorks" /><cc:requires
           rdf:resource="http://scripts.sil.org/pub/OFL/Notice" /><cc:requires
           rdf:resource="http://scripts.sil.org/pub/OFL/Attribution" /><cc:requires
           rdf:resource="http://scripts.sil.org/pub/OFL/ShareAlike" /><cc:requires
           rdf:resource="http://scripts.sil.org/pub/OFL/DerivativeRenaming" /><cc:requires
           rdf:resource="http://scripts.sil.org/pub/OFL/BundlingWhenSelling" /></cc:License></rdf:RDF></metadata><g
     id="layer1"
     inkscape:groupmode="layer"
     inkscape:label="Layer 1"><path
       id="path6"
       style="display:inline;fill:#000000;fill-opacity:1;stroke-width:7.55906"
       d="m 686.24677,1050.1826 c -47.52391,0 -85.61138,8.4355 -119.97285,39.6763 -27.96869,25.4286 -65.76684,71.4548 -103.28954,137.061 h -78.41602 v 41.3086 h 56.11133 c -45.90869,86.4116 -83.83839,162.3231 -128.27894,253.5905 -69.81466,143.378 -162.82525,244.4873 -204.78324,231.3876 9.41143,-11.8715 15.54868,-44.373 15.54868,-60.218 0,-30.3857 -26.336056,-49.2344 -57.171876,-49.2344 -32.96325,0 -55.83789,35.3492 -55.83789,65.8461 0,40.4526 52.754489,93.5248 110.491176,93.5248 102.51513,0 190.7351,-86.5024 301.57401,-266.2834 37.24805,-60.4164 99.33387,-209.7024 136.78425,-268.6132 H 660.25 v -41.3086 h -90.17969 c 45.17862,-99.6342 72.56035,-144.1124 124.76832,-144.9918 l 6.5737,4.6567 c -21.41699,9.9654 -27.75488,29.0855 -27.75488,56.3302 0,27.2473 28.18257,40.3252 35.39333,40.3252 28.31851,0 57.18945,-18.668 57.18945,-60.2291 0,-38.3369 -43.19769,-72.8285 -79.99346,-72.8285 z"
       sodipodi:nodetypes="ssccccscsssssccccccssss"
       transform="translate(287.33866,-12.313093)" /><path
       style="display:inline;fill:#000000;fill-opacity:1;stroke-width:7.55906"
       d="m 554.80806,1415.7413 7.70567,7.7057 c 0,0 -49.73658,75.6556 -93.86904,75.6556 -44.13246,0 -45.78929,-35.6124 -44.68939,-50.0548 2.73115,-35.8618 22.65518,-74.7164 33.48115,-102.6575 10.97942,-28.3371 46.234,-89.666 46.234,-109.9809 0,-20.315 -11.20824,-32.8235 -25.21855,-32.8235 -22.25927,0 -52.53864,29.3209 -67.24946,57.3415 l -89.66595,201.0479 c -8.89628,19.5584 -13.30979,37.1273 -32.92421,37.1273 -19.61443,0 -29.2886,-15.464 -9.67418,-58.896 19.61443,-43.4319 65.5064,-144.3788 74.6131,-170.2978 9.1067,-25.9191 10.71672,-60.8195 -13.1008,-60.8195 -25.80568,0 -46.98843,22.2987 -59.54379,50.873 l -79.15822,190.8047 c -9.25644,22.3666 -19.61443,48.3356 -44.83298,48.3356 -25.21855,0 -27.64094,-29.948 -9.80721,-71.4526 l 72.66139,-160.015 c 11.20825,-30.1222 19.1061,-69.0534 0.19219,-69.0534 -18.91391,0 -31.50752,10.7788 -46.99927,29.3647 -13.11554,15.7351 -17.42562,34.1111 -17.44813,61.7022 l -27.32009,-1.401 c -1.45159,-24.4335 0.367,-55.2397 25.97323,-85.9467 26.04402,-31.232 51.08344,-37.8109 73.49993,-37.8109 22.41649,0 42.00104,5.6226 62.75428,32.3404 20.85016,-13.933 29.71373,-26.9699 66.84104,-26.9699 37.12731,0 45.63315,21.3321 55.04882,35.9599 24.74679,-23.2497 51.89075,-31.8083 79.90351,-32.4716 32.66019,-0.7732 52.6342,22.5495 48.43111,64.5804 -4.20309,42.031 -22.90926,67.1869 -37.62008,106.4158 -14.71082,39.2288 -35.8137,75.1722 -35.8137,102.4923 0,22.7802 9.83844,30.5494 15.44256,30.5494 11.31485,0 41.93341,-24.8742 72.15307,-61.6453 z"
       id="path1"
       sodipodi:nodetypes="ccsssssccssssccsccssccsscscsssssc" /></g></svg>
