<?xml version="1.0" standalone="no"?>
<!DOCTYPE svg PUBLIC "-//W3C//DTD SVG 1.1//EN" "http://www.w3.org/Graphics/SVG/1.1/DTD/svg11.dtd" >
<svg xmlns="http://www.w3.org/2000/svg" xmlns:xlink="http://www.w3.org/1999/xlink" version="1.1" viewBox="-10 0 701 1000">
   <path fill="currentColor"
d="M118 900c-66 0 -118 -60 -118 -126c0 -46 25 -113 74 -162c42 -42 93 -62 166 -62c109 0 196 45 252 132c29 44 40 84 40 151c0 127 -40 238 -112 321c-50 58 -155 147 -281 216c-43 24 -82 41 -132 54l-1 -10c47 -16 104 -49 165 -96c156 -121 229 -254 229 -440
c0 -82 -15 -142 -44 -195c-37 -67 -81 -91 -145 -91c-48 0 -79 15 -111 43c-30 27 -48 58 -57 92c12 -8 32 -20 66 -20c58 0 105 46 105 106c0 25 -8 44 -30 62s-44 25 -66 25zM584 682c0 -27 22 -49 49 -49s48 22 48 49s-21 49 -48 49s-49 -22 -49 -49zM584 925
c0 -27 22 -48 49 -48s48 21 48 48s-21 49 -48 49s-49 -22 -49 -49z" />
</svg>
