<?xml version="1.0" standalone="no"?>
<!DOCTYPE svg PUBLIC "-//W3C//DTD SVG 1.1//EN" "http://www.w3.org/Graphics/SVG/1.1/DTD/svg11.dtd" >
<svg xmlns="http://www.w3.org/2000/svg" xmlns:xlink="http://www.w3.org/1999/xlink" version="1.1" viewBox="-10 0 636 1000">
   <path fill="currentColor"
d="M385.486 544.396c123.182 0 230.106 111.009 230.106 256c0 63.3594 -20.7051 120.329 -46.9619 156.288c-31.4805 43.1104 -81.0205 72.3926 -137.549 88.124c9.74023 71.5967 18.5312 136.125 25.4697 186.9c1.73047 17.2852 2.66797 32.5654 2.66797 46.4082
c0 51.1709 -12.8057 82.6992 -37.2197 112.832c-45.4258 56.0684 -106.706 77.3809 -164.878 77.3809c-133.146 0 -175.459 -100.156 -175.459 -158.111c0 -72.9561 58.6035 -103.691 100.023 -103.691c56.7979 0 91.584 47.041 91.584 100.214
c0 82.5352 -86.4795 109.688 -98.2676 113.007c11.8965 17.7646 41.7627 28.0693 77.124 28.0693c77.1201 0 180.381 -49.0107 180.381 -176.515c0 -3.71973 -5.21387 -63.1934 -26.6895 -220.451c-25.5205 5.14746 -52.0664 7.70898 -78.7129 7.70898
c-111.502 0 -224.748 -44.8613 -280.005 -141.499c-25.7393 -45.0146 -46.6914 -144.537 -46.6914 -196.736c0 -194.275 169.434 -336.957 261.351 -435.435c11.1143 -11.9072 21.6406 -22.9736 31.6406 -33.3379c-8.83105 -86.5645 -10.0703 -133.418 -10.0703 -174.519
c0 -168.59 40.6934 -235.438 94.0361 -323.065c46.9355 -59.3936 62.5029 -73.3184 94.8271 -84.8213c12.3359 9.28516 86.623 88.835 86.623 275.794c0 154.014 -32.0938 237.098 -217.523 438.695c6.18652 45.5645 13.707 100.972 21.9814 161.938
c7.28516 -0.78125 14.6953 -1.17871 22.2119 -1.17871zM312.956 414.104c-7.93945 8.45117 -16.1279 17.1016 -24.5732 25.9639c-113.339 118.936 -196.476 189.677 -196.476 327.674c0 131.685 82.3105 272.83 246.496 272.83c8.61035 0 34.3066 -0.761719 64.791 -8.83594
c-11.3916 -82.543 -26.959 -189.957 -48.084 -327.498c-0.990234 -6.4502 -1.96777 -12.8291 -2.93164 -19.1367c-69.1221 11.7236 -128.737 60.4492 -128.737 137.074c0 17.1689 3.45996 77.0068 49.3223 116.232l-0.978516 4.08691
c-65.124 -25.5283 -90.3555 -96.7617 -90.3555 -167.079c0 -116.621 63.0312 -200.052 150.77 -223.994c-7.49805 -51.4893 -13.8555 -96.9551 -19.2432 -137.317zM428.205 1023.66c56.1572 -21.6709 116.98 -70.9355 116.98 -182.683
c0 -38.0479 -11.7188 -158.621 -160.272 -158.621c-1.02441 0 -2.04785 0.0078125 -3.07031 0.0244141c15.4082 113.506 31.8125 234.301 46.3623 341.279zM319.422 224.92c78.3164 -79.2119 121.731 -115.473 169.392 -196.048
c30.5605 -51.6689 34.3838 -91.2344 34.3838 -146.54c0 -31.4697 -3.625 -85.8877 -26.5635 -115.079c-23.9141 11.7188 -36.3682 22.3545 -51.3262 37.4053c-91.1143 91.6826 -135.496 221.797 -135.496 314.759c0 28.9209 3.67285 62.9043 9.61035 105.503z" />
</svg>
