<?xml version="1.0" standalone="no"?>
<!DOCTYPE svg PUBLIC "-//W3C//DTD SVG 1.1//EN" "http://www.w3.org/Graphics/SVG/1.1/DTD/svg11.dtd" >
<svg xmlns="http://www.w3.org/2000/svg" xmlns:xlink="http://www.w3.org/1999/xlink" version="1.1" viewBox="-10 0 436 1000">
   <path fill="currentColor"
d="M72.2568 814.026c0 -73.6104 65.7432 -107.026 108.743 -107.026c25 0 44 12 59 35c19 -34 49 -44 73 -44c49 0 82 51 83 125c0 52 -15 102 -64 156c0 0 -25.6973 28.542 -73.083 28.542c-32.1436 0 -63.917 -18.542 -71.917 -25.542
c-11.9258 38.96 -22.3506 78.3984 -26 120l57 6v15h-218v-15l52 -6c46 -106 78 -203 111 -319c-7 -13 -15.6377 -18.9453 -24.9141 -18.9453c-18.4248 0 -47.0859 27.9453 -48.0859 78.9453l-12 1c-4 -9 -5.74316 -19.3193 -5.74316 -29.9736zM329.207 793.389
c0 -10.5059 -2.21484 -44.7832 -32.8066 -44.7832c-17.3701 0 -27.4004 9.39453 -35.4004 15.3945l-58 170c5 18 15.8799 29.5879 37.666 29.5879c50.0957 0 88.541 -118.302 88.541 -170.199z" />
</svg>
