<?xml version="1.0" standalone="no"?>
<!DOCTYPE svg PUBLIC "-//W3C//DTD SVG 1.1//EN" "http://www.w3.org/Graphics/SVG/1.1/DTD/svg11.dtd" >
<svg xmlns="http://www.w3.org/2000/svg" xmlns:xlink="http://www.w3.org/1999/xlink" version="1.1" viewBox="-10 0 334 1000">
   <path fill="currentColor"
d="M190.542 654.824c69.2773 0 122.932 45.8506 122.932 117.282c0 95.4971 -94.2949 183.833 -191.486 183.833c-72.2695 0 -121.776 -49.6328 -121.776 -118.228c0 -94.3057 90.6777 -182.888 190.331 -182.888zM234 706h-6c-33.9346 0 -109.781 50.2148 -152.616 105.901
c-18.498 24.0469 -37.3838 57.6221 -37.3838 66.3096c0 7.1709 12.8682 26.9961 38 26.9961c11.1973 0 96.8389 -17.498 164.611 -105.541c29.8564 -38.7871 34.6035 -63.1973 34.6035 -69.8955c0 -0.935547 -0.0927734 -1.52539 -0.106445 -1.7666
c-0.108398 -1.91699 -12.0049 -22.1318 -37.5479 -22.1318c-1.15918 0 -2.3457 0.0410156 -3.56055 0.12793z" />
</svg>
